<svg width="70" height="70" viewBox="0 0 70 70" fill="none" xmlns="http://www.w3.org/2000/svg">
<rect width="70" height="70" rx="12" fill="#74BF44" fill-opacity="0.08"/>
<path d="M30.668 32.1109L35.374 35.6411C35.6655 35.8598 36.0289 35.9601 36.3914 35.9221C36.7538 35.8841 37.0885 35.7104 37.3283 35.436L46.5569 24.8887" stroke="#74BF44" stroke-width="3" stroke-linecap="round"/>
<path d="M48 34.9998C48 37.7161 47.1492 40.3642 45.5671 42.5721C43.9849 44.7801 41.7508 46.437 39.1787 47.3101C36.6065 48.1832 33.8254 48.2287 31.2261 47.4402C28.6268 46.6516 26.3397 45.0687 24.6862 42.9136C23.0327 40.7586 22.0957 38.1397 22.0069 35.4248C21.9182 32.71 22.682 30.0355 24.1913 27.7771C25.7005 25.5186 27.8792 23.7896 30.4215 22.8329C32.9638 21.8763 35.7418 21.74 38.3656 22.4432" stroke="#74BF44" stroke-width="3" stroke-linecap="round"/>
</svg>
