<svg width="70" height="70" viewBox="0 0 70 70" fill="none" xmlns="http://www.w3.org/2000/svg">
<rect width="70" height="70" rx="12" fill="#FF4848" fill-opacity="0.08"/>
<path d="M31.0662 30.069C31.3287 29.8065 31.6847 29.6591 32.056 29.6591C32.4272 29.6591 32.7832 29.8065 33.0458 30.069L36.0614 33.0832L39.0756 30.069C39.2047 29.9353 39.3592 29.8286 39.53 29.7553C39.7008 29.6819 39.8845 29.6433 40.0704 29.6417C40.2563 29.64 40.4406 29.6755 40.6127 29.7459C40.7847 29.8162 40.9411 29.9202 41.0725 30.0517C41.204 30.1831 41.3079 30.3394 41.3783 30.5115C41.4487 30.6835 41.4841 30.8679 41.4825 31.0538C41.4809 31.2397 41.4423 31.4234 41.3689 31.5942C41.2955 31.765 41.1889 31.9195 41.0552 32.0486L38.041 35.0642L41.0552 38.0784C41.3102 38.3424 41.4513 38.6961 41.4481 39.0632C41.4449 39.4302 41.2977 39.7814 41.0381 40.041C40.7785 40.3005 40.4274 40.4478 40.0603 40.4509C39.6932 40.4541 39.3396 40.313 39.0756 40.058L36.0614 37.0438L33.0458 40.058C32.7807 40.3069 32.4292 40.4429 32.0656 40.4373C31.7021 40.4316 31.355 40.2848 31.0978 40.0278C30.8406 39.7707 30.6935 39.4237 30.6876 39.0602C30.6817 38.6966 30.8174 38.345 31.0662 38.0798L34.0804 35.0656L31.0662 32.05C30.8037 31.7875 30.6562 31.4314 30.6562 31.0602C30.6562 30.689 30.8037 30.3329 31.0662 30.0704" fill="#FF4848"/>
<path fill-rule="evenodd" clip-rule="evenodd" d="M36 21C28.2678 21 22 27.2678 22 35C22 42.7322 28.2678 49 36 49C43.7322 49 50 42.7322 50 35C50 27.2678 43.7322 21 36 21ZM24.8 35C24.8 32.0296 25.98 29.1808 28.0804 27.0804C30.1808 24.98 33.0296 23.8 36 23.8C38.9704 23.8 41.8192 24.98 43.9196 27.0804C46.02 29.1808 47.2 32.0296 47.2 35C47.2 37.9704 46.02 40.8192 43.9196 42.9196C41.8192 45.02 38.9704 46.2 36 46.2C33.0296 46.2 30.1808 45.02 28.0804 42.9196C25.98 40.8192 24.8 37.9704 24.8 35Z" fill="#FF4848"/>
</svg>
