<svg width="70" height="70" viewBox="0 0 70 70" fill="none" xmlns="http://www.w3.org/2000/svg">
<rect width="70" height="70" rx="12" fill="#EEEEEE" fill-opacity="0.5"/>
<path d="M34.0279 22.3806C34.2857 22.1369 34.6354 22 35 22C35.3646 22 35.7143 22.1369 35.9721 22.3806L40.0971 26.2807C40.3476 26.5259 40.4862 26.8542 40.4831 27.1951C40.4799 27.536 40.3353 27.862 40.0804 28.1031C39.8254 28.3441 39.4806 28.4808 39.1201 28.4838C38.7595 28.4867 38.4122 28.3557 38.1529 28.1189L36.375 26.438V38.8999C36.375 39.2447 36.2301 39.5754 35.9723 39.8192C35.7144 40.063 35.3647 40.1999 35 40.1999C34.6353 40.1999 34.2856 40.063 34.0277 39.8192C33.7699 39.5754 33.625 39.2447 33.625 38.8999V26.438L31.8471 28.1189C31.5878 28.3557 31.2405 28.4867 30.8799 28.4838C30.5194 28.4808 30.1746 28.3441 29.9196 28.1031C29.6647 27.862 29.5201 27.536 29.5169 27.1951C29.5138 26.8542 29.6524 26.5259 29.9029 26.2807L34.0279 22.3806ZM24 33.6998C24 33.0103 24.2897 32.349 24.8055 31.8614C25.3212 31.3738 26.0207 31.0998 26.75 31.0998H29.5C29.8647 31.0998 30.2144 31.2368 30.4723 31.4806C30.7301 31.7244 30.875 32.055 30.875 32.3998C30.875 32.7446 30.7301 33.0753 30.4723 33.3191C30.2144 33.5629 29.8647 33.6998 29.5 33.6998H26.75V45.4H43.25V33.6998H40.5C40.1353 33.6998 39.7856 33.5629 39.5277 33.3191C39.2699 33.0753 39.125 32.7446 39.125 32.3998C39.125 32.055 39.2699 31.7244 39.5277 31.4806C39.7856 31.2368 40.1353 31.0998 40.5 31.0998H43.25C43.9793 31.0998 44.6788 31.3738 45.1945 31.8614C45.7103 32.349 46 33.0103 46 33.6998V45.4C46 46.0895 45.7103 46.7509 45.1945 47.2385C44.6788 47.7261 43.9793 48 43.25 48H26.75C26.0207 48 25.3212 47.7261 24.8055 47.2385C24.2897 46.7509 24 46.0895 24 45.4V33.6998Z" fill="black"/>
</svg>
